<svg xmlns="http://www.w3.org/2000/svg" width="32" height="18" viewBox="0 0 32 18"><defs><style>.a{fill:#2557d6;}.b{fill:#fff;}</style></defs><path class="a" d="M0,18H32V0H0Z"/><path class="b" d="M15.524,9.851h0l-2.93,0-.721-.687-.765.687H6.352V5.436H11.2l.7.676.742-.676H15.88a2.327,2.327,0,0,1,1.267.258V5.436h2.9a2.793,2.793,0,0,1,1.212.258V5.436h4.395v.258a1.956,1.956,0,0,1,1.074-.258h2.461v.258a2.156,2.156,0,0,1,1.126-.258h1.663v.629h-1.79c-.952,0-1.291.486-1.291.941,0,.936.918.957,1.728.975h.081l.088,0a.526.526,0,0,1,.317.07.245.245,0,0,1,.111.21.263.263,0,0,1-.107.206.571.571,0,0,1-.364.078H29.021v.678h1.736a1.536,1.536,0,0,0,1.219-.4v.822a3.679,3.679,0,0,1-1.318.2H28.329V9.566a2.364,2.364,0,0,1-1.224.283H19.761V8.829c0-.126-.016-.13-.163-.13h-.117v1.15H17.064V8.658a3.44,3.44,0,0,1-1.138.157h-.4V9.85Zm2.3-3.767V9.247h.9V8.092h.96a1.037,1.037,0,0,1,.66.14.7.7,0,0,1,.145.553v.461h.9V8.62a.837.837,0,0,0-.149-.578.975.975,0,0,0-.44-.266.9.9,0,0,0,.637-.841.73.73,0,0,0-.463-.7A2.621,2.621,0,0,0,19.9,6.084H17.822Zm7.695,2.485v.678h1.751c.937,0,1.412-.336,1.412-1a.8.8,0,0,0-.269-.67,1.622,1.622,0,0,0-1.026-.255L26.9,7.313a1.338,1.338,0,0,1-.35-.036.25.25,0,0,1-.2-.236.234.234,0,0,1,.135-.228.666.666,0,0,1,.36-.057H28.5V6.084H26.7c-.948,0-1.285.486-1.285.941,0,.936.917.957,1.726.975l.083,0h.042l.042,0a.534.534,0,0,1,.319.07.253.253,0,0,1,.11.209.261.261,0,0,1-.106.206.589.589,0,0,1-.367.079H25.517ZM21.957,6.084V9.247h3V8.591l-2.105,0V7.959h2.054V7.313H22.853V6.738h2.105V6.084h-3ZM11.866,8.209l1.116,1.038h1.747V8.186H15.85c1.054,0,1.566-.347,1.566-1.06s-.5-1.042-1.515-1.042H13.028L11.884,7.121,10.778,6.084H7.171L7.162,9.247h3.56Zm1.962.733,0,0L12.45,7.655l1.38-1.247,0,2.531Zm-3.56-.36H8.058V7.952h1.974V7.307H8.058V6.732h2.254l.983.922-1.027.928Zm21.711-.95,0,0-.011-.012a.287.287,0,0,0-.071-.065,1.587,1.587,0,0,0-1.02-.255l-.487-.011a1.061,1.061,0,0,1-.347-.036.246.246,0,0,1-.2-.236.236.236,0,0,1,.131-.228.8.8,0,0,1,.365-.057h1.638v.9ZM15.872,7.538H14.71V6.732h1.172c.251,0,.55.067.55.388C16.431,7.385,16.227,7.538,15.872,7.538Zm3.981-.1H18.76v-.71h1.107a1.087,1.087,0,0,1,.429.057.3.3,0,0,1,.186.285.33.33,0,0,1-.186.3A.965.965,0,0,1,19.852,7.442ZM7.864,4.413H6.3l-.27-.539V4.41H3l-.346-.7H1.883l-.346.7H0V3.775H.977l.349-.705H3.2l.345.706H5.37V1.3l1.307,2.48h.789L8.771,1.3l0,2.477H9.7V.612H8.2L7.119,2.758,5.942.612H4.475V3.606L2.946.612H1.61L0,3.771,0,2.1,1.089,0H3.433l.3.521V0h2.75l.6,1.139L7.671,0H16.4a1.646,1.646,0,0,1,1.015.257V0H19.8V.257A3.606,3.606,0,0,1,21.3,0h3.462l.321.521V0h2.562L28,.521V0h2.5V4.41H27.973L27.5,3.743V4.41H24.347L24,3.708h-.776l-.35.7H21.245A3.54,3.54,0,0,1,19.8,4.142V4.41H15.918v-1c0-.141-.029-.148-.131-.152h-.145l0,1.153H8.134V3.866l-.27.547Zm14.8-1.344h1.868l.35.7h1.83V1.4l1.7,2.373h1.274V.612h-.921v2.2l-1.58-2.2H25.816V3.6L24.295.612H22.947L21.68,3.1h-.4a1,1,0,0,1-.627-.163.978.978,0,0,1-.247-.743.945.945,0,0,1,.258-.716.943.943,0,0,1,.692-.187h.852V.612h-.871a2.04,2.04,0,0,0-1.365.369,1.505,1.505,0,0,0-.484,1.237,1.448,1.448,0,0,0,.481,1.207,2.209,2.209,0,0,0,1.3.349h1.052l.339-.7ZM13.985.612V3.775h.9V2.624h.965a1.022,1.022,0,0,1,.655.135.728.728,0,0,1,.142.559v.057l0,.4h.907V3.153a.794.794,0,0,0-.148-.58,1.059,1.059,0,0,0-.446-.266.908.908,0,0,0,.634-.843.724.724,0,0,0-.455-.7A2.471,2.471,0,0,0,16.052.612Zm4.135,0h0V3.774h.916V.612h-.917Zm-7.76,0V3.774h3V3.12h-2.1V2.489h2.054V1.841H11.26v-.57h2.1V.612Zm13.859,1.8H22.982L23.6,1.152l.619,1.259Zm-21.332,0H1.663l.611-1.261.613,1.259ZM16.015,2H14.923V1.3H16.03a1.115,1.115,0,0,1,.427.057.285.285,0,0,1,.188.28.313.313,0,0,1-.184.3A.987.987,0,0,1,16.015,2Z" transform="translate(0.01 4.074)"/></svg>