<svg id="FreeLogoServices" xmlns="http://www.w3.org/2000/svg" width="92" height="92" viewBox="0 0 92 92"><defs><style>.cls-1{fill:#d8d8d8;}.cls-2{fill:#005596;}</style></defs><title>Boost-Local-SEO</title><path class="cls-1" d="M46,91.5A45.5,45.5,0,1,1,91.5,46,45.55,45.55,0,0,1,46,91.5Zm0-90A44.5,44.5,0,1,0,90.5,46,44.55,44.55,0,0,0,46,1.5Z"/><path class="cls-2" d="M39.37,57.43q-3.81-5.49-5-7.39A21.78,21.78,0,0,1,32,45.43a14.92,14.92,0,0,1,1.38-11.62,14.88,14.88,0,0,1,5.33-5.33,14.48,14.48,0,0,1,14.62,0,14.88,14.88,0,0,1,5.33,5.33A14.92,14.92,0,0,1,60,45.43,21.78,21.78,0,0,1,57.65,50q-1.21,1.91-5,7.39l-5.11,7.31a1.9,1.9,0,0,1-3,0Q42.5,61.85,39.37,57.43Zm10.93-12a6.08,6.08,0,1,0-8.6-8.61,6.08,6.08,0,1,0,8.6,8.61Z"/></svg>