<svg xmlns="http://www.w3.org/2000/svg" xmlns:xlink="http://www.w3.org/1999/xlink" width="37" height="33" viewBox="0 0 37 33"><defs><style>.cls-1{isolation:isolate;}.cls-2{fill:#fff;}.cls-3{fill:#525a5c;}.cls-4{fill:url(#radial-gradient);}.cls-5{fill:#724098;}.cls-6{fill:#d22a90;}.cls-7{fill:#f37c20;}.cls-8{fill:#fbce08;}.cls-9{fill:#f9a21b;}.cls-10{fill:#ed3224;}.cls-11{fill:#19b14b;}.cls-12{fill:#f7eb20;}.cls-13{fill:#9bca3b;}.cls-14{fill:#107abf;}.cls-15{fill:#01b0d0;}.cls-16{fill:#2b4199;}.cls-17{fill:url(#radial-gradient-2);}.cls-18{fill:url(#radial-gradient-3);}.cls-19{fill:url(#radial-gradient-4);}.cls-20{fill:url(#radial-gradient-5);}.cls-21{fill:url(#linear-gradient);}.cls-22{fill:url(#radial-gradient-6);}.cls-23{fill:url(#linear-gradient-2);}.cls-24{fill:url(#radial-gradient-7);}.cls-25{fill:url(#radial-gradient-8);}.cls-26{fill:url(#radial-gradient-9);}.cls-27{opacity:0.2;mix-blend-mode:multiply;}</style><radialGradient id="radial-gradient" cx="14.09" cy="13.39" r="8.58" gradientUnits="userSpaceOnUse"><stop offset="0" stop-color="#fff"/><stop offset="1" stop-color="#d3d3d3" stop-opacity="0"/></radialGradient><radialGradient id="radial-gradient-2" cx="13.94" cy="14.2" r="11.01" gradientUnits="userSpaceOnUse"><stop offset="0" stop-color="#fff"/><stop offset="0.09" stop-color="#fcfcfc" stop-opacity="0.95"/><stop offset="0.26" stop-color="#f2f3f3" stop-opacity="0.81"/><stop offset="0.48" stop-color="#e4e4e5" stop-opacity="0.6"/><stop offset="0.75" stop-color="#cfd1d2" stop-opacity="0.3"/><stop offset="1" stop-color="#bbbdbf" stop-opacity="0"/></radialGradient><radialGradient id="radial-gradient-3" cx="14.09" cy="13.91" r="6.9" gradientUnits="userSpaceOnUse"><stop offset="0" stop-color="#97999c"/><stop offset="0.1" stop-color="#808284"/><stop offset="0.31" stop-color="#535455"/><stop offset="0.51" stop-color="#2f2f30"/><stop offset="0.7" stop-color="#151516"/><stop offset="0.87" stop-color="#050606"/><stop offset="1"/></radialGradient><radialGradient id="radial-gradient-4" cx="16.64" cy="20.07" r="13.88" gradientTransform="matrix(1, -0.08, 0.06, 0.71, -1.12, 7.2)" gradientUnits="userSpaceOnUse"><stop offset="0.6" stop-color="#4d4d4d"/><stop offset="0.72" stop-color="#d3d3d3"/><stop offset="0.84" stop-color="#929497"/><stop offset="0.93" stop-color="#6d6e70"/><stop offset="1" stop-color="#898b8d"/></radialGradient><radialGradient id="radial-gradient-5" cx="23.46" cy="21.81" r="21.69" gradientUnits="userSpaceOnUse"><stop offset="0.07" stop-color="#fff"/><stop offset="0.22" stop-color="#909295"/><stop offset="0.37" stop-color="#c4c5c7"/><stop offset="0.66" stop-color="#616161"/><stop offset="0.68" stop-color="#727272"/><stop offset="0.71" stop-color="#979797"/><stop offset="0.74" stop-color="#b8b8b8"/><stop offset="0.77" stop-color="#d2d2d2"/><stop offset="0.81" stop-color="#e6e6e6"/><stop offset="0.86" stop-color="#f4f4f4"/><stop offset="0.91" stop-color="#fcfcfc"/><stop offset="1" stop-color="#fff"/></radialGradient><linearGradient id="linear-gradient" x1="24.53" y1="23.76" x2="32.25" y2="23.76" gradientUnits="userSpaceOnUse"><stop offset="0"/><stop offset="0.13" stop-color="#2e2e2f"/><stop offset="0.3" stop-color="#636465"/><stop offset="0.46" stop-color="#8d8e8f"/><stop offset="0.6" stop-color="#abacae"/><stop offset="0.73" stop-color="#bdbec0"/><stop offset="0.81" stop-color="#c4c5c7"/><stop offset="1" stop-color="#fff"/></linearGradient><radialGradient id="radial-gradient-6" cx="16.91" cy="14.56" r="16.99" gradientUnits="userSpaceOnUse"><stop offset="0" stop-color="#fff"/><stop offset="0.8" stop-color="#2c292a"/><stop offset="1" stop-color="#404040"/></radialGradient><linearGradient id="linear-gradient-2" x1="26.26" y1="21.53" x2="33.11" y2="21.53" xlink:href="#linear-gradient"/><radialGradient id="radial-gradient-7" cx="25.88" cy="13.46" r="10.18" gradientTransform="translate(0 -5.35) scale(1 1.4)" gradientUnits="userSpaceOnUse"><stop offset="0" stop-color="#988478"/><stop offset="0.26" stop-color="#815f44"/><stop offset="0.43" stop-color="#754c28"/><stop offset="0.44" stop-color="#764d29"/><stop offset="0.71" stop-color="#7e5a3d"/><stop offset="0.9" stop-color="#815f44"/><stop offset="0.92" stop-color="#7b5637"/><stop offset="0.96" stop-color="#77502d"/><stop offset="1" stop-color="#764e2a"/></radialGradient><radialGradient id="radial-gradient-8" cx="25.31" cy="11.4" r="12.8" gradientTransform="translate(0 -4.79) scale(1 1.42)" gradientUnits="userSpaceOnUse"><stop offset="0" stop-color="#9d8b81"/><stop offset="0.1" stop-color="#9c897e"/><stop offset="0.18" stop-color="#978274"/><stop offset="0.25" stop-color="#907663"/><stop offset="0.32" stop-color="#85654c"/><stop offset="0.39" stop-color="#78502e"/><stop offset="0.4" stop-color="#754c28"/><stop offset="0.41" stop-color="#704826"/><stop offset="0.5" stop-color="#59381e"/><stop offset="0.59" stop-color="#482c18"/><stop offset="0.7" stop-color="#3e2515"/><stop offset="0.83" stop-color="#3b2314"/></radialGradient><radialGradient id="radial-gradient-9" cx="26.05" cy="16.05" r="8.07" gradientUnits="userSpaceOnUse"><stop offset="0.33" stop-color="#775945"/><stop offset="0.66" stop-color="#563116"/><stop offset="0.83" stop-color="#6a4933"/><stop offset="1" stop-color="#542f13"/></radialGradient></defs><title>Create Logo_1</title><g class="cls-1"><g id="FreeLogoServices"><path class="cls-2" d="M25.34,7.41a13.06,13.06,0,0,0-4.76-4.75,13,13,0,0,0-13,0A13,13,0,0,0,2.84,7.41a13,13,0,0,0,0,13,13,13,0,0,0,22.5-13Z"/><path class="cls-3" d="M14.09,26.94a13,13,0,1,1,11.29-6.52,13.25,13.25,0,0,1-4.77,4.78A13.07,13.07,0,0,1,14.09,26.94Zm0-26a12.94,12.94,0,1,0,6.47,24.15,13.13,13.13,0,0,0,4.74-4.74,13,13,0,0,0,0-12.94h0A12.93,12.93,0,0,0,14.09,1Z"/><path class="cls-4" d="M22.67,13.39a8.59,8.59,0,1,1-8.58-8.58A8.58,8.58,0,0,1,22.67,13.39Z"/><path class="cls-5" d="M2.84,7.41a12.89,12.89,0,0,0-1.74,6.5h13Z"/><path class="cls-6" d="M7.59,2.66A13,13,0,0,0,2.84,7.41l11.25,6.5Z"/><path class="cls-7" d="M20.58,2.66A12.88,12.88,0,0,0,14.09.92v13Z"/><path class="cls-8" d="M27.08,13.91a13,13,0,0,0-1.74-6.5l-11.25,6.5Z"/><path class="cls-9" d="M25.34,7.41a13.06,13.06,0,0,0-4.76-4.75L14.09,13.91Z"/><path class="cls-10" d="M14.09.92a12.89,12.89,0,0,0-6.5,1.74l6.5,11.25Z"/><path class="cls-11" d="M14.09,26.89a13,13,0,0,0,6.49-1.73L14.09,13.91Z"/><path class="cls-12" d="M14.09,13.91,25.34,20.4a13,13,0,0,0,1.74-6.49Z"/><path class="cls-13" d="M20.58,25.16a13.09,13.09,0,0,0,4.76-4.76L14.09,13.91Z"/><path class="cls-14" d="M2.84,20.4a13.06,13.06,0,0,0,4.75,4.76l6.5-11.25Z"/><path class="cls-15" d="M7.59,25.16a13,13,0,0,0,6.5,1.73v-13Z"/><path class="cls-16" d="M1.1,13.91A12.88,12.88,0,0,0,2.84,20.4l11.25-6.49Z"/><path class="cls-17" d="M25.61,14.2A11.52,11.52,0,1,1,14.09,2.68,11.52,11.52,0,0,1,25.61,14.2Z"/><path class="cls-2" d="M7.19,13.91a6.9,6.9,0,1,1,6.9,6.89A6.9,6.9,0,0,1,7.19,13.91Z"/><path class="cls-3" d="M14.09,20.85A6.95,6.95,0,1,1,21,13.91,7,7,0,0,1,14.09,20.85Zm0-13.79a6.85,6.85,0,1,0,6.85,6.85A6.85,6.85,0,0,0,14.09,7.06Z"/><path class="cls-18" d="M7.19,13.91a6.9,6.9,0,1,1,6.9,6.89A6.9,6.9,0,0,1,7.19,13.91Z"/><path class="cls-2" d="M14.09,20.9a7,7,0,1,1,7-7A7,7,0,0,1,14.09,20.9Zm0-13.8a6.81,6.81,0,1,0,6.8,6.81A6.82,6.82,0,0,0,14.09,7.1Z"/><path class="cls-2" d="M34.7,14.21A16.73,16.73,0,0,0,31,5.13C28.59,2.22,24.46,1.71,24.7,2a9.74,9.74,0,0,1,1.53,2.5c.94,2.35.35,4.38-.44,6.41S24,15,24.2,17.4a3.78,3.78,0,0,0,1.16,2.41l.19.17a11.86,11.86,0,0,1-2.26,3.44h0a13.45,13.45,0,0,1-9.67,4c-6.9,0-1.2,4.35,2.9,4.35a16.35,16.35,0,0,0,12.84-6h-.05a14.2,14.2,0,0,0,2.48-5C34.11,19.64,34.93,17,34.7,14.21Z"/><path class="cls-2" d="M35.78,13.9C34.61,6.11,27.37.63,24.34,1.78a10.59,10.59,0,0,1,2.48,3.15c1.08,2.24.63,4.27,0,6.32s-1.48,4.14-1.13,6.49A3.69,3.69,0,0,0,26.92,20a11.79,11.79,0,0,1-.63,1.35,12.27,12.27,0,0,1-1.74,2.39,13.21,13.21,0,0,1-9.69,4.1c-6,0-11.33-3.89-12.82-9,0,0-.11-.05-.12-.09-.18-.61-.21-.77-.21-.67.2,7.85,7.47,14.08,16,14.08a16.06,16.06,0,0,0,12.63-5.93,14.48,14.48,0,0,0,1.87-3.08A13.81,13.81,0,0,0,33,20.72l.08,0C35.52,19.49,36.2,16.69,35.78,13.9Z"/><path class="cls-3" d="M17.71,32.13c-8.65,0-15.85-6.34-16-14.13,0,0,0-.07,0-.07s0,0,.11.22.08.28.14.51H2a.23.23,0,0,1,.09.08c1.51,5.22,6.88,9,12.77,9a13.25,13.25,0,0,0,9.66-4.08,12,12,0,0,0,1.73-2.38A10.52,10.52,0,0,0,26.86,20a3.71,3.71,0,0,1-1.22-2.23A12.25,12.25,0,0,1,26.52,12l.24-.77c.61-1.94,1.11-4,0-6.29a10.46,10.46,0,0,0-2.47-3.13l-.06-.05.07,0c1-.37,2.45-.06,4,.86a16.56,16.56,0,0,1,7.48,11.3h0c.48,3.2-.54,5.75-2.73,6.82l-.06,0a14,14,0,0,1-.79,2.34,14.23,14.23,0,0,1-1.87,3.09A16.23,16.23,0,0,1,17.71,32.13ZM1.77,18.32C2.15,25.91,9.23,32,17.71,32a16.12,16.12,0,0,0,12.6-5.91,14.45,14.45,0,0,0,1.86-3.07A13.12,13.12,0,0,0,33,20.71v0l.1,0c2.15-1.05,3.15-3.57,2.68-6.73h0A16.48,16.48,0,0,0,28.3,2.68a5.11,5.11,0,0,0-3.87-.88,10.54,10.54,0,0,1,2.43,3.11c1.11,2.3.6,4.4,0,6.35l-.24.78a12.08,12.08,0,0,0-.88,5.69A3.59,3.59,0,0,0,27,19.92l0,0v0a11,11,0,0,1-.63,1.35,11.94,11.94,0,0,1-1.74,2.4,13.31,13.31,0,0,1-9.73,4.12C8.93,27.85,3.52,24,2,18.78l0,0s-.07,0-.08-.07S1.8,18.42,1.77,18.32Z"/><path class="cls-19" d="M25,24.29a4.13,4.13,0,0,1-.41-.59,13.21,13.21,0,0,1-9.69,4.1c-6,0-11.33-3.89-12.82-9-.12-.3-.23-.61-.33-.92.2,7.85,7.47,14.24,16,14.24a16.06,16.06,0,0,0,12.63-5.93A5.88,5.88,0,0,1,25,24.29Z"/><path class="cls-20" d="M27,22.08a3.93,3.93,0,0,1-.7-.77,12.27,12.27,0,0,1-1.74,2.39,4.13,4.13,0,0,0,.41.59,5.88,5.88,0,0,0,5.38,1.86,14.48,14.48,0,0,0,1.87-3.08A5.85,5.85,0,0,1,27,22.08Z"/><path class="cls-21" d="M29.36,26.26a5.86,5.86,0,0,1-4.42-2,4.89,4.89,0,0,1-.41-.6v0h0a11.49,11.49,0,0,0,1.73-2.38l0,0,0,0a3.83,3.83,0,0,0,.69.76h0a5.86,5.86,0,0,0,5.2,1l0,0,0,0a13.93,13.93,0,0,1-1.87,3.08h0A5.52,5.52,0,0,1,29.36,26.26ZM24.58,23.7a4,4,0,0,0,.4.58,5.86,5.86,0,0,0,5.35,1.85,14.51,14.51,0,0,0,1.84-3,5.92,5.92,0,0,1-5.2-1h0a3.72,3.72,0,0,1-.68-.75A11.58,11.58,0,0,1,24.58,23.7Z"/><path class="cls-22" d="M32.65,20.56A6.3,6.3,0,0,1,27,19.78a11.77,11.77,0,0,1-.7,1.53,3.93,3.93,0,0,0,.7.77,5.85,5.85,0,0,0,5.22,1,13.85,13.85,0,0,0,.87-2.69A3.25,3.25,0,0,1,32.65,20.56Z"/><path class="cls-23" d="M30.57,23.32A5.66,5.66,0,0,1,27,22.1a4,4,0,0,1-.7-.78h0a11.65,11.65,0,0,0,.7-1.53v0l0,0a6.26,6.26,0,0,0,5.64.78h0l.43-.18,0,0v.05a13.62,13.62,0,0,1-.87,2.69h0A6.14,6.14,0,0,1,30.57,23.32Zm-4.25-2a3.72,3.72,0,0,0,.68.75,5.87,5.87,0,0,0,5.19,1,13.71,13.71,0,0,0,.86-2.63l-.39.16h0A6.3,6.3,0,0,1,27,19.81,12.57,12.57,0,0,1,26.32,21.31Z"/><path class="cls-24" d="M35.78,13.9C34.61,6.11,27.37.63,24.34,1.78a10.59,10.59,0,0,1,2.48,3.15c1.08,2.24.63,4.27,0,6.32s-1.48,4.14-1.13,6.49A3.7,3.7,0,0,0,27,20a5.87,5.87,0,0,0,5.66.85l.43-.19C35.52,19.49,36.2,16.69,35.78,13.9Z"/><path class="cls-25" d="M28.11,8a13.48,13.48,0,0,0-.95-4.63A7.1,7.1,0,0,1,29,10c1.69-4.69-.86-7.44-3-8.28a3.14,3.14,0,0,0-1.66.07,13.28,13.28,0,0,1,1.57,1.69A6.07,6.07,0,0,1,28.11,8Z"/><path class="cls-26" d="M35.78,13.9c-1-6.73-6.56-11.73-10-12.23h0l-.17,0H25.1l-.18,0h-.05l-.13,0-.06,0-.12,0-.06,0-.16.05.24.23h0a14.36,14.36,0,0,1,1.33,1.47A6.07,6.07,0,0,1,28.11,8a13.48,13.48,0,0,0-.95-4.63A7.1,7.1,0,0,1,29,10c1-2.89.47-5-.61-6.46a16.53,16.53,0,0,1,5.08,12.25c0,.18,0,.35,0,.53-.22-1.58-.58-2.77-.47-2,.18,1.47-.66,3.67-1.95,5.4.85-1.25-.18-11.27-.18-5.54s-4.06,5.59-4.06,5.59v0l.28.27a5.34,5.34,0,0,0,2.54,1.12A7.15,7.15,0,0,0,31,21.3h.27c.2,0,.41-.05.61-.09a2.71,2.71,0,0,0,.9-.37l.32-.14C35.52,19.49,36.2,16.69,35.78,13.9Z"/><g class="cls-27"><path d="M35.8,13.54C35.53,16,32.63,20,29.34,20a4.92,4.92,0,0,1-3.54-1.58,5,5,0,0,0,4.76,2.88C34.63,21.29,36.47,18.05,35.8,13.54Z"/></g></g></g></svg>