<svg xmlns="http://www.w3.org/2000/svg" xmlns:xlink="http://www.w3.org/1999/xlink" width="32" height="18" viewBox="0 0 32 18"><defs><style>.a{fill:none;}.b{clip-path:url(#a);}.c{fill:#4d4d4d;}.d{fill:#fff;}.e{fill:#f47216;}</style><clipPath id="a"><path class="a" d="M0,0H32V18H0Z"/></clipPath></defs><g transform="translate(0)"><path class="a" d="M0,0H32V18H0Z"/><g class="b"><path class="c" d="M2.256,0H0V18H27.488C30.99,18,32,17.115,32,16.024V0H2.256Z"/></g><path class="d" d="M18.589,3.738h-.454L16.3.085h.92l1.153,2.392L19.541.085h.913L18.589,3.737ZM6.6,3.729a1.783,1.783,0,0,1-1.5-.678l.544-.432a1.038,1.038,0,0,0,.92.475c.373,0,.654-.216.654-.5a.417.417,0,0,0-.253-.368,3.851,3.851,0,0,0-.582-.2c-.795-.236-1.063-.482-1.063-.976C5.324.461,5.9.023,6.672.023a2.157,2.157,0,0,1,1.27.4L7.5.894A.949.949,0,0,0,6.821.6c-.358,0-.628.17-.628.4,0,.193.147.293.654.448C7.8,1.735,8.09,1.995,8.09,2.56,8.09,3.248,7.477,3.729,6.6,3.729Zm4.036-.006A2.079,2.079,0,0,1,8.356,1.864,2.119,2.119,0,0,1,10.656,0a2.509,2.509,0,0,1,1.037.219v.817a1.562,1.562,0,0,0-1.057-.4A1.314,1.314,0,0,0,9.224,1.859a1.294,1.294,0,0,0,1.451,1.228,1.481,1.481,0,0,0,1.018-.39v.818A2.734,2.734,0,0,1,10.636,3.722Zm13.989-.069h-.842V.09h1.25c.971,0,1.528.383,1.528,1.052,0,.544-.349.9-.984,1.01l1.358,1.5-1.035,0L24.736,2.221h-.111V3.652Zm0-3V1.73h.247c.539,0,.823-.19.823-.551s-.28-.528-.81-.528Zm-19.838,3H3.944V.09h.843V3.651Zm18.438,0h-2.39V.09h2.39v.6H21.677v.79h1.491v.6H21.677v.962h1.548v.6Zm-22,0H0V.09H1.237C2.6.09,3.556.824,3.556,1.874a1.692,1.692,0,0,1-.784,1.367A2.585,2.585,0,0,1,1.23,3.652ZM.842.694V3.049h.226a1.831,1.831,0,0,0,1.153-.283,1.137,1.137,0,0,0,.467-.9A1.115,1.115,0,0,0,2.221.982,1.778,1.778,0,0,0,1.068.694Z" transform="translate(2.766 5.817)"/><path class="e" d="M22.923,12.207H0A78,78,0,0,0,16.256,7.782a44.973,44.973,0,0,0,6.667-3.214v7.638ZM7.955,3.79a2.129,2.129,0,0,1-2.3-1.9A2.129,2.129,0,0,1,7.955,0a2.128,2.128,0,0,1,2.3,1.894A2.129,2.129,0,0,1,7.955,3.79Z" transform="translate(9.076 5.792)"/></g></svg>