<svg id="FreeLogoServices" xmlns="http://www.w3.org/2000/svg" width="92" height="92" viewBox="0 0 92 92"><defs><style>.cls-1{fill:#d8d8d8;}.cls-2{fill:#005596;}</style></defs><title>Dominate-The-First-Page</title><path class="cls-1" d="M46,91.5A45.5,45.5,0,1,1,91.5,46,45.55,45.55,0,0,1,46,91.5Zm0-90A44.5,44.5,0,1,0,90.5,46,44.55,44.55,0,0,0,46,1.5Z"/><path class="cls-2" d="M65.23,56a.85.85,0,0,1,.27.64v3.05a.89.89,0,0,1-.27.65.85.85,0,0,1-.64.27H27.41a.85.85,0,0,1-.64-.27.89.89,0,0,1-.27-.65V32.29a.89.89,0,0,1,.27-.65.84.84,0,0,1,.64-.26h3.05a.88.88,0,0,1,.65.26.89.89,0,0,1,.27.65V55.75H64.59A.85.85,0,0,1,65.23,56ZM52.7,33.81a1.74,1.74,0,0,0-1.29.54,1.72,1.72,0,0,0-.53,1.29,1.76,1.76,0,0,0,.53,1.3l2.51,2.51L48.44,45l-4.27-4.27a.82.82,0,0,0-.61-.22,1.11,1.11,0,0,0-.68.22l-9.07,9a.84.84,0,0,0-.23.61,1.14,1.14,0,0,0,.23.69L36,53.24a.73.73,0,0,0,.61.3,1,1,0,0,0,.69-.3L43.56,47l4.19,4.27a1.14,1.14,0,0,0,.69.22.85.85,0,0,0,.61-.22L57.43,43l2.51,2.52a1.77,1.77,0,0,0,1.29.53,1.81,1.81,0,0,0,1.83-1.83V35.64a1.83,1.83,0,0,0-1.83-1.83Z"/></svg>