<svg id="FreeLogoServices" xmlns="http://www.w3.org/2000/svg" width="92" height="92" viewBox="0 0 92 92"><defs><style>.cls-1{fill:#d8d8d8;}.cls-2{fill:#005596;}</style></defs><title>Improve-Business-Reputation</title><path class="cls-1" d="M46,91.5A45.5,45.5,0,1,1,91.5,46,45.55,45.55,0,0,1,46,91.5Zm0-90A44.5,44.5,0,1,0,90.5,46,44.55,44.55,0,0,0,46,1.5Z"/><path class="cls-2" d="M63.54,43.16l-7.9,7.7,1.87,10.88a3.31,3.31,0,0,1,0,.44c0,.56-.26,1.09-.89,1.09a1.71,1.71,0,0,1-.87-.27L46,57.87,36.23,63a1.77,1.77,0,0,1-.87.27c-.63,0-.91-.53-.91-1.09a3.42,3.42,0,0,1,0-.44l1.87-10.88-7.92-7.7a1.68,1.68,0,0,1-.54-1c0-.66.67-.92,1.21-1L40,39.53l4.89-9.9c.2-.42.57-.9,1.07-.9s.87.48,1.07.9L52,39.53l10.93,1.58c.52.09,1.21.35,1.21,1A1.61,1.61,0,0,1,63.54,43.16Z"/></svg>