<svg id="FreeLogoServices" xmlns="http://www.w3.org/2000/svg" width="92" height="92" viewBox="0 0 92 92"><defs><style>.cls-1{fill:#d8d8d8;}.cls-2{fill:#005596;}</style></defs><title>More-Brand-Visibility</title><path class="cls-1" d="M46,91.5A45.5,45.5,0,1,1,91.5,46,45.55,45.55,0,0,1,46,91.5Zm0-90A44.5,44.5,0,1,0,90.5,46,44.55,44.55,0,0,0,46,1.5Z"/><path class="cls-2" d="M65.06,47.5A22.78,22.78,0,0,1,46,58.53a22.83,22.83,0,0,1-19.06-11,2.78,2.78,0,0,1,0-3A22.83,22.83,0,0,1,46,33.47a22.83,22.83,0,0,1,19.06,11,2.78,2.78,0,0,1,0,3ZM54.42,38.32a9.75,9.75,0,1,1-16.84,0A22,22,0,0,0,29.29,46C33,51.74,39,55.75,46,55.75s13-4,16.71-9.75A22,22,0,0,0,54.42,38.32ZM46,36.6a6.64,6.64,0,0,0-6.61,6.61,1,1,0,1,0,2.08,0A4.55,4.55,0,0,1,46,38.69a1,1,0,0,0,0-2.09Z"/></svg>