<svg xmlns="http://www.w3.org/2000/svg" width="32" height="18" viewBox="0 0 32 18"><defs><style>.a{fill:#16366f;}.b{fill:#d9222a;}.c{fill:#ee9f2d;}.d{fill:#fff;}</style></defs><path class="a" d="M0,18H32V0H0Z"/><g transform="translate(3.692 2.538)"><path class="b" d="M14.729,6.462c0,3.569-3.3,6.462-7.365,6.462S0,10.031,0,6.462,3.3,0,7.364,0s7.365,2.893,7.365,6.462" transform="translate(0 0)"/><path class="c" d="M7.2,0A7.936,7.936,0,0,0,2.255,1.673a7.037,7.037,0,0,0-.744.684H3a6.653,6.653,0,0,1,.561.684H.95a6.245,6.245,0,0,0-.424.684H3.985A6.018,6.018,0,0,1,4.3,4.41H.214A5.772,5.772,0,0,0,0,5.094H4.51a5.732,5.732,0,0,1,.166,1.368A5.736,5.736,0,0,1,4.3,8.515H.214A5.953,5.953,0,0,0,.526,9.2H3.985a6.269,6.269,0,0,1-.425.684H.95a6.634,6.634,0,0,0,.561.684H3a6.92,6.92,0,0,1-.744.684A7.937,7.937,0,0,0,7.2,12.924c4.067,0,7.365-2.893,7.365-6.462S11.266,0,7.2,0" transform="translate(10.052)"/><path d="M23.4,5.382a.211.211,0,1,1,.238-.209A.225.225,0,0,1,23.4,5.382Zm0-.367a.16.16,0,1,0,.181.158A.171.171,0,0,0,23.4,5.015Zm-6.536-1.5a.7.7,0,0,1-.73-.728c0-.653.511-1.028,1.4-1.028a2.809,2.809,0,0,1,.326.021A.593.593,0,0,0,17.9,1.6c0-.177-.139-.243-.513-.243h-.024a2.9,2.9,0,0,0-.822.121l.111-.6A3.609,3.609,0,0,1,17.6.742,1.18,1.18,0,0,1,18.462,1a.706.706,0,0,1,.193.518,2.938,2.938,0,0,1-.065.528l-.018.1-.011.058-.021.117-.005.031c-.081.457-.168.957-.184,1.108h-.662l.015-.276A1.063,1.063,0,0,1,16.866,3.513Zm.725-1.245c-.453,0-.682.137-.682.406a.262.262,0,0,0,.286.272.615.615,0,0,0,.574-.667C17.674,2.271,17.641,2.268,17.591,2.268ZM15.2,3.513A1.3,1.3,0,0,1,13.8,2.1a2.531,2.531,0,0,1,.057-.547h-.04c-.263,0-.387.055-.428.191l-.3.147c-.076.541-.159,1.058-.251,1.579h-.8l.037-.179c.031-.191.072-.418.142-.8l0-.026,0-.023,0-.015,0-.007,0-.016,0-.016,0-.016,0-.015,0-.023,0-.023.005-.032c.087-.481.177-.979.236-1.475h.734a1.188,1.188,0,0,1-.025.268l.208-.042.046-.054c.172-.2.334-.391.615-.391A.711.711,0,0,1,14.3.617,1.673,1.673,0,0,1,15.6,0a1.984,1.984,0,0,1,.757.224l.008,0a1.12,1.12,0,0,0,.113.05l-.131.711a1.69,1.69,0,0,0-.715-.176c-.6,0-1.015.5-1.015,1.228a.711.711,0,0,0,.746.8,1.643,1.643,0,0,0,.68-.168l-.141.748A2.593,2.593,0,0,1,15.2,3.513Zm-4.257,0h-.01c-.886,0-1.354-.412-1.354-1.189A1.447,1.447,0,0,1,10.968.742a.959.959,0,0,1,1.074.965,2.753,2.753,0,0,1-.1.655H10.361a.431.431,0,0,0,.086.359.782.782,0,0,0,.6.189,2.146,2.146,0,0,0,.826-.168l-.132.663A3.078,3.078,0,0,1,10.94,3.513ZM10.93,1.348c-.254,0-.434.169-.508.476H11.3l0-.014a.461.461,0,0,0-.076-.354A.378.378,0,0,0,10.93,1.348ZM8.735,3.513c-.407,0-.632-.208-.632-.586a3.3,3.3,0,0,1,.074-.516l0-.015L8.2,2.307l.016-.09c.029-.158.148-.779.329-1.72l0-.008.013-.07L8.56.4h.795L9.262.8h.48l-.109.641H9.151c-.042.23-.075.4-.1.518l-.018.1-.005.03c-.051.257-.1.526-.1.58,0,.136.084.2.274.2a.722.722,0,0,0,.215-.025l-.105.59A1.912,1.912,0,0,1,8.735,3.513Zm-1.97,0a4.133,4.133,0,0,1-.81-.076H5.941l-.007,0c0-.017.049-.27.084-.469l.007-.04,0-.021,0-.027,0-.013c0-.008,0-.015,0-.023l0-.019a.025.025,0,0,0,0-.005,2.407,2.407,0,0,0,.716.105c.317,0,.459-.074.459-.241,0-.121-.049-.159-.374-.294-.421-.174-.608-.4-.608-.744a.805.805,0,0,1,.223-.6,1.344,1.344,0,0,1,.978-.3,6.187,6.187,0,0,1,.7.052l-.113.618a4.535,4.535,0,0,0-.574-.04c-.26,0-.391.073-.391.218,0,.125.038.155.373.29A.735.735,0,0,1,8,2.622C8,3.23,7.607,3.513,6.765,3.513Zm-2.495,0a.7.7,0,0,1-.73-.728c0-.653.512-1.028,1.4-1.028a2.91,2.91,0,0,1,.326.021A.575.575,0,0,0,5.3,1.6c0-.177-.139-.243-.512-.243H4.765a2.948,2.948,0,0,0-.823.121c0-.019.029-.157.054-.29l.022-.118L4.042.944l0-.022.007-.04A3.6,3.6,0,0,1,5.01.742,1.18,1.18,0,0,1,5.867,1a.706.706,0,0,1,.193.518,3.042,3.042,0,0,1-.065.528l-.009.05c-.139.765-.216,1.224-.229,1.365H5.094l.015-.276A1.064,1.064,0,0,1,4.271,3.513ZM5,2.268c-.453,0-.682.137-.682.406a.262.262,0,0,0,.286.272.616.616,0,0,0,.575-.667A1.706,1.706,0,0,0,5,2.268ZM.749,3.468H0L.625.189H1.775l.069,1.834.7-1.834H3.824L3.206,3.466h-.8L2.865.947,1.842,3.467H1.3L1.229.961.749,3.467Z" transform="translate(0.47 4.891)"/><path class="d" d="M3.206,3.278h-.8L2.865.758,1.842,3.278H1.3L1.23.772.748,3.278H0L.625,0h1.15l.032,2.029L2.583,0H3.824Z" transform="translate(0.7 4.885)"/><path d="M2.509,3.324a.987.987,0,0,1-.966-1.106,2.058,2.058,0,0,1,.193-.865H1.711a.743.743,0,0,0-.5.257c-.051.044-.1.09-.163.137C.985,2.19.9,2.706.8,3.278H0L.037,3.1c.046-.274.1-.553.146-.823.1-.547.2-1.112.27-1.663h.734a3.831,3.831,0,0,1-.036.4h0l.041.01c.1.028.376.1.64.152A1.241,1.241,0,0,1,2.844.512a1.043,1.043,0,0,1,.764.435L3.785,0h.788L3.964,3.278H3.209l.038-.248A1.008,1.008,0,0,1,2.509,3.324ZM3,1.241c-.365,0-.62.368-.62.9,0,.349.138.526.41.526.373,0,.634-.37.634-.9C3.419,1.426,3.269,1.241,3,1.241Z" transform="translate(19.087 5.08)"/><path class="d" d="M17.586,3.406A.987.987,0,0,1,16.62,2.3a1.517,1.517,0,0,1,1.3-1.634.943.943,0,0,1,.763.363l.177-.947h.788L19.042,3.36h-.757l.038-.248A.979.979,0,0,1,17.586,3.406Zm.487-2.083c-.365,0-.62.368-.62.9,0,.349.138.526.41.526.374,0,.634-.37.634-.9C18.5,1.508,18.346,1.323,18.073,1.323ZM13.325,3.406a.7.7,0,0,1-.731-.728c0-.653.512-1.027,1.4-1.027.082,0,.2.007.326.02a.6.6,0,0,0,.031-.173c0-.176-.139-.242-.513-.242h-.024a3.036,3.036,0,0,0-.822.12L13.03,1.2c.042-.231.077-.417.077-.42a3.653,3.653,0,0,1,.957-.141A1.179,1.179,0,0,1,14.921.9a.7.7,0,0,1,.193.518,3.018,3.018,0,0,1-.065.528l-.009.05c-.139.764-.216,1.223-.229,1.365h-.662l.015-.276A1.061,1.061,0,0,1,13.325,3.406Zm.725-1.244c-.453,0-.683.136-.683.4a.262.262,0,0,0,.287.272.614.614,0,0,0,.574-.666A1.531,1.531,0,0,0,14.051,2.162ZM11.657,3.406a1.3,1.3,0,0,1-1.4-1.415A1.82,1.82,0,0,1,12.06,0a3.094,3.094,0,0,1,.878.17l-.13.712A1.679,1.679,0,0,0,12.093.7c-.6,0-1.015.5-1.015,1.228a.711.711,0,0,0,.746.8,1.709,1.709,0,0,0,.679-.168l-.14.747A2.8,2.8,0,0,1,11.657,3.406Zm-4.256,0H7.39c-.886,0-1.354-.411-1.354-1.189A1.447,1.447,0,0,1,7.428.634.958.958,0,0,1,8.5,1.6a2.467,2.467,0,0,1-.1.656H6.82a.43.43,0,0,0,.086.358.782.782,0,0,0,.6.189,2.12,2.12,0,0,0,.826-.168L8.205,3.3A3.035,3.035,0,0,1,7.4,3.406ZM7.389,1.241c-.254,0-.434.169-.508.476h.877l0-.014a.462.462,0,0,0-.077-.355A.376.376,0,0,0,7.389,1.241ZM5.195,3.406c-.407,0-.632-.208-.632-.585A3.406,3.406,0,0,1,4.638,2.3V2.29l0-.016,0-.018c.006-.032.012-.063.017-.094l0-.023.005-.03c.026-.137.129-.678.2-1.072l.056-.3L4.945.684,5.017.3l0-.011h.794l-.093.4h.409l-.109.641H5.611c-.021.123-.047.259-.08.428l-.021.105,0,.018-.013.067c-.069.355-.107.556-.108.6,0,.136.084.2.274.2a.81.81,0,0,0,.215-.024l-.105.589A1.989,1.989,0,0,1,5.195,3.406Zm-1.97,0a4.173,4.173,0,0,1-.814-.076l-.018,0V3.32l0-.008,0-.016,0-.018L2.416,3.2l.021-.117L2.469,2.9,2.5,2.726l0-.014a2.479,2.479,0,0,0,.717.105c.317,0,.459-.074.459-.241,0-.122-.049-.16-.374-.294-.421-.174-.608-.4-.608-.744a.806.806,0,0,1,.223-.6A1.343,1.343,0,0,1,3.9.634a6.194,6.194,0,0,1,.7.052l-.113.618a4.833,4.833,0,0,0-.575-.041c-.26,0-.391.073-.391.218,0,.125.038.155.374.29a.737.737,0,0,1,.563.743C4.458,3.123,4.066,3.406,3.225,3.406Zm-2.494,0A.7.7,0,0,1,0,2.678c0-.653.512-1.027,1.4-1.027.088,0,.2.007.326.02A.588.588,0,0,0,1.76,1.5c0-.176-.139-.242-.512-.242H1.224a3.029,3.029,0,0,0-.823.12C.41,1.333.511.78.512.776A3.568,3.568,0,0,1,1.469.634,1.183,1.183,0,0,1,2.326.9a.705.705,0,0,1,.193.518,3.063,3.063,0,0,1-.065.528l-.009.05c-.063.348-.21,1.165-.23,1.365H1.553l.014-.276A1.057,1.057,0,0,1,.731,3.406Zm.725-1.244c-.453,0-.682.136-.682.4a.262.262,0,0,0,.286.272.614.614,0,0,0,.574-.666A1.423,1.423,0,0,0,1.455,2.162Zm18.176,1.2a.211.211,0,1,1,.238-.21A.225.225,0,0,1,19.631,3.36Zm0-.367a.16.16,0,1,0,.181.158A.171.171,0,0,0,19.631,2.993Zm-3.754.367h-.8l.037-.179c.04-.233.076-.436.117-.66l.029-.16,0-.022c.088-.474.2-1.065.267-1.645h.734a1.262,1.262,0,0,1-.029.287V.988l0,.014c-.005.031-.011.063-.015.1.219-.281.386-.433.636-.433a.625.625,0,0,1,.13.013,2.587,2.587,0,0,0-.3.774h-.037l-.031,0c-.386,0-.464.365-.736,1.911ZM9.3,3.36H8.5l.036-.179c.023-.139.048-.277.072-.409V2.766l.017-.094.007-.04.024-.136.013-.071.009-.049V2.367c.1-.518.2-1.1.273-1.673h.734a1.269,1.269,0,0,1-.027.284c-.008.043-.014.081-.02.12.218-.281.385-.433.635-.433A.6.6,0,0,1,10.4.678a2.442,2.442,0,0,0-.3.774h-.037l-.031,0c-.386,0-.464.365-.735,1.911Z" transform="translate(4.241 4.803)"/></g></svg>