<svg xmlns="http://www.w3.org/2000/svg" width="32" height="18" viewBox="0 0 32 18"><defs><style>.a{fill:#fff;}.b{fill:#003087;}.c{fill:#009cde;}</style></defs><path class="a" d="M0,18H32V0H0Z"/><g transform="translate(2.254 5.802)"><path class="b" d="M1.2,5.217H.177a.174.174,0,0,1-.134-.058A.145.145,0,0,1,0,5.029L.875.224C.893.075.988,0,1.157,0H3.3A2.592,2.592,0,0,1,4.653.312,1.091,1.091,0,0,1,5.17,1.319,2,2,0,0,1,4.513,2.9,2.683,2.683,0,0,1,2.7,3.474c-.03,0-.1,0-.188-.012-.111-.008-.19-.012-.256-.012a1.591,1.591,0,0,0-.228.018.438.438,0,0,0-.2.076.223.223,0,0,0-.094.153l-.242,1.3C1.474,5.142,1.375,5.217,1.2,5.217ZM2.352,1.048a.157.157,0,0,0-.175.13l-.228,1.26.443-.012a1.988,1.988,0,0,0,.8-.13.663.663,0,0,0,.349-.542c.054-.289,0-.481-.161-.572a1.685,1.685,0,0,0-.778-.135Z" transform="translate(0 0)"/><path class="c" d="M2.054,0H1.06A.156.156,0,0,0,.886.13l-.873,4.9L0,5.053a.156.156,0,0,0,.054.112.183.183,0,0,0,.134.053h.886q.255,0,.282-.224L2.228.177V.165Q2.228,0,2.054,0Z" transform="translate(25.263)"/><path class="b" d="M4.939.165A.157.157,0,0,0,4.886.053.168.168,0,0,0,4.765,0H3.731A.3.3,0,0,0,3.49.118L2.067,1.955,1.476.188A.28.28,0,0,0,1.181,0H.174A.167.167,0,0,0,.054.053.156.156,0,0,0,0,.165Q0,.189.262.86L.825,2.309q.3.777.315.824A10.964,10.964,0,0,0,.04,4.546q0,.153.174.153H1.248a.3.3,0,0,0,.242-.118L4.913.247A.106.106,0,0,0,4.939.165Z" transform="translate(10.378 1.732)"/><path class="c" d="M1.7,3.651A1.808,1.808,0,0,1,.463,3.239,1.413,1.413,0,0,1,0,2.132,2,2,0,0,1,.678.636,2.326,2.326,0,0,1,2.322,0,1.5,1.5,0,0,1,3.6.472c.027-.258.1-.389.228-.389H4.846A.177.177,0,0,1,4.98.141a.146.146,0,0,1,.041.13L4.469,3.345a.262.262,0,0,1-.3.223H3.248c-.116,0-.175-.063-.175-.188A.566.566,0,0,1,3.1,3.239a.851.851,0,0,0,.027-.106A1.608,1.608,0,0,1,2.5,3.51,2.406,2.406,0,0,1,1.7,3.651Zm.859-2.7a1.2,1.2,0,0,0-.832.3.952.952,0,0,0-.336.736.625.625,0,0,0,.241.518,1,1,0,0,0,.631.188A1.231,1.231,0,0,0,3.094,2.4a.918.918,0,0,0,.342-.718.646.646,0,0,0-.248-.536A.987.987,0,0,0,2.563.954Z" transform="translate(20.096 1.649)"/><path class="b" d="M1.7,3.651A1.807,1.807,0,0,1,.463,3.239,1.413,1.413,0,0,1,0,2.132,2,2,0,0,1,.678.636,2.326,2.326,0,0,1,2.322,0,1.525,1.525,0,0,1,3.6.472c.027-.258.1-.389.228-.389H4.846A.177.177,0,0,1,4.98.141a.15.15,0,0,1,.041.13L4.469,3.345a.262.262,0,0,1-.3.223H3.248c-.116,0-.175-.063-.175-.188a.7.7,0,0,1,.054-.248,1.737,1.737,0,0,1-.644.377A2.37,2.37,0,0,1,1.7,3.651Zm.86-2.7a1.2,1.2,0,0,0-.833.3.952.952,0,0,0-.336.736.632.632,0,0,0,.235.518.976.976,0,0,0,.625.188,1.263,1.263,0,0,0,.839-.289.911.911,0,0,0,.342-.724.646.646,0,0,0-.248-.536A.986.986,0,0,0,2.564.954Z" transform="translate(4.848 1.649)"/><path class="c" d="M1.278,5.217H.177a.174.174,0,0,1-.134-.058A.145.145,0,0,1,0,5.029L.875.224C.893.075.992,0,1.171,0H3.3A2.6,2.6,0,0,1,4.654.312,1.092,1.092,0,0,1,5.17,1.319,2,2,0,0,1,4.513,2.9,2.683,2.683,0,0,1,2.7,3.474c-.03,0-.1,0-.188-.012-.111-.008-.19-.012-.256-.012a1.591,1.591,0,0,0-.228.018.438.438,0,0,0-.2.076.223.223,0,0,0-.094.153L1.492,5.064A.207.207,0,0,1,1.278,5.217ZM2.365,1.048a.157.157,0,0,0-.175.13l-.229,1.26.43-.012a1.777,1.777,0,0,0,.886-.176.72.72,0,0,0,.3-.671.429.429,0,0,0-.161-.36.7.7,0,0,0-.336-.147,3.576,3.576,0,0,0-.47-.023Z" transform="translate(15.248 0)"/></g></svg>