<svg xmlns="http://www.w3.org/2000/svg" width="11.428" height="15" viewBox="0 0 11.428 15"><defs><style>.a{fill:#c4930f;}</style></defs><path class="a" d="M827.1,1083.8a1.465,1.465,0,0,1,1.429,1.428v7.143a1.465,1.465,0,0,1-1.429,1.428h-8.571a1.465,1.465,0,0,1-1.429-1.428v-7.143a1.464,1.464,0,0,1,1.429-1.428h.714v-1.428a3.242,3.242,0,0,1,1.072-2.5,3.776,3.776,0,0,1,2.5-1.072,3.351,3.351,0,0,1,2.5,1.072,3.778,3.778,0,0,1,1.071,2.5v1.428Zm-2.071,0v-1.428a2.215,2.215,0,0,0-.643-1.572,2.214,2.214,0,0,0-3.786,1.572v1.428Zm-3.214,6a1.381,1.381,0,1,0-.429-1A1.41,1.41,0,0,0,821.814,1089.8Z" transform="translate(-817.1 -1078.8)"/></svg>