<svg xmlns="http://www.w3.org/2000/svg" width="32" height="18" viewBox="0 0 32 18"><defs><style>.a{fill:#0e4595;}.b{fill:#fff;}.c{fill:#f2ae14;}</style></defs><path class="a" d="M0,18H32V0H0Z"/><g transform="translate(2.47 5.363)"><path class="b" d="M13.228,7.275A7.81,7.81,0,0,1,10.79,6.9L11.1,5.321l.283.112a5.112,5.112,0,0,0,2.06.371c.627,0,1.3-.215,1.31-.688,0-.309-.282-.529-1.134-.874-.829-.336-1.931-.9-1.918-1.915C11.71.956,13.231,0,15.4,0a6.3,6.3,0,0,1,1.962.3l-.3,1.527-.2-.081A4.484,4.484,0,0,0,15.3,1.471h-.073c-.861,0-1.254.314-1.254.606,0,.332.464.548,1.229.874,1.263.5,1.847,1.111,1.839,1.914C17.024,6.329,15.527,7.275,13.228,7.275ZM9.45,7.192H7.262L8.63.144h2.19L9.45,7.191Zm9.752,0H16.9L20.154.728A1.11,1.11,0,0,1,21.3.144h1.691l1.772,7.042H22.732L22.71,7.1l-.042-.169c-.064-.256-.161-.643-.2-.8h-.019l-1.249,0H19.662c-.064.145-.277.635-.391.9l-.012.027-.058.132ZM21.47,2.052c-.031.075-.069.162-.107.248l-.008.019-.045.1-.044.1c-.08.182-.086.2-.086.2-.008.02-.713,1.613-.872,1.97h1.816c-.092-.376-.5-2.03-.506-2.035ZM1.96,7.18h0L0,1.017A5.816,5.816,0,0,1,3.032,3.974l.228.977L5.4.144H7.722L4.276,7.178Z" transform="translate(2.297)"/><path class="c" d="M3.558,0H.028L0,.147C2.746.73,4.563,2.14,5.318,3.834L4.55.595C4.418.149,4.033.016,3.558,0" transform="translate(0 0.144)"/></g></svg>